<?xml version="1.0" encoding="UTF-8"?>
<svg width="512pt" height="512pt" version="1.1" viewBox="0 0 512 512" xmlns="http://www.w3.org/2000/svg">
 <path d="m257.81 356.08c0-6.7266-5.4688-12.195-12.195-12.195h-109.21c-14.18 0-25.719 11.539-25.719 25.719v22.738c0 14.18 11.539 25.719 25.719 25.719h109.21c6.7266 0 12.195-5.4727 12.195-12.195v-11.004h94.242l12.32 8.0703c0.60156 0.39453 1.2969 0.59766 2.0039 0.59766 0.33203 0 0.66797-0.046875 0.99609-0.14062l30.598-8.668c1.5742-0.44531 2.6602-1.8828 2.6602-3.5195v-20.457c0-1.6367-1.0859-3.0742-2.6602-3.5195l-30.598-8.668c-1.0195-0.29297-2.1133-0.125-3 0.45703l-12.32 8.0703h-94.242zm-72.648-4.8789v59.547h-19.652v-59.547zm-67.164 41.141v-22.738c0-10.148 8.2539-18.402 18.402-18.402h21.793v59.547h-21.793c-10.148 0-18.402-8.2578-18.402-18.406zm132.5 13.523c0 2.6914-2.1875 4.8828-4.8789 4.8828h-53.137v-59.547h53.137c2.6914 0 4.8789 2.1875 4.8789 4.8789zm102.65-31.465c0.71094 0 1.4102-0.20703 2.0039-0.59766l11.84-7.7539 26.332 7.457v14.93l-26.332 7.457-11.84-7.7539c-0.59375-0.39062-1.293-0.59766-2.0039-0.59766l-95.332 0.003906v-13.145z"/>
 <path d="m78.371 493.71h347.29c6.4023 0 11.613-5.207 11.613-11.613v-241.91l10.582 9.3867c4.9727 4.4102 11.375 6.5742 17.992 6.1133 6.6328-0.46875 12.656-3.5195 16.961-8.582 8.6523-10.184 7.6484-25.164-2.2891-34.105l-210.44-189.32c-8.0234-7.2266-20.129-7.2188-28.152 0l-210.45 189.32c-9.9375 8.9375-10.941 23.918-2.2891 34.105 4.3047 5.0664 10.328 8.1133 16.961 8.582 0.59375 0.042969 1.1836 0.0625 1.7695 0.0625 5.9883 0 11.695-2.1602 16.223-6.1758l10.566-9.3711 0.003906 249.85c0 2.0195 1.6367 3.6562 3.6562 3.6562zm351.59-11.613c0 2.3711-1.9297 4.2969-4.3008 4.2969h-343.63v-252.68l172.52-152.98c0.82812-0.73438 2.082-0.73438 2.9062 0l172.5 152.97zm-370.66-238c-3.4883 3.0938-7.9883 4.6133-12.625 4.2891-4.6523-0.32812-8.8828-2.4688-11.902-6.0234-6.0742-7.1445-5.3672-17.656 1.6055-23.93l210.45-189.32c5.2344-4.7109 13.133-4.7109 18.367 0l210.44 189.32c6.9727 6.2695 7.6797 16.781 1.6055 23.93-3.0195 3.5547-7.25 5.6953-11.902 6.0234-4.6328 0.31641-9.1328-1.1914-12.625-4.2891l-190.4-168.84c-1.793-1.5977-4.0469-2.3906-6.3008-2.3906s-4.5078 0.79688-6.3047 2.3906z"/>
 <path d="m214.38 184.94c0 22.953 18.672 41.625 41.625 41.625s41.625-18.672 41.625-41.625-18.672-41.625-41.625-41.625-41.625 18.672-41.625 41.625zm75.938 0c0 18.918-15.391 34.312-34.312 34.312-18.918 0-34.312-15.391-34.312-34.312 0-18.918 15.395-34.312 34.312-34.312s34.312 15.395 34.312 34.312z"/>
</svg>
